ply
format ascii 1.0
comment Created by Blender 2.62 (sub 0) - www.blender.org, source file: 'boxman.blend'
element vertex 677
property float x
property float y
property float z
property float nx
property float ny
property float nz
element face 280
property list uchar uint vertex_indices
end_header
1.000000 -1.000000 0.194167 -0.000000 -1.000000 -0.000000
0.999999 -1.000001 1.000000 -0.000000 -1.000000 -0.000000
-0.000001 -1.000000 1.000000 -0.000000 -1.000000 -0.000000
-0.000000 -1.000000 0.194167 -0.000000 -1.000000 -0.000000
1.000000 -1.000000 -0.611665 -0.000000 -1.000000 -0.000000
-0.000000 -1.000000 -0.611665 -0.000000 -1.000000 -0.000000
-1.000000 -1.000000 1.000000 -0.000000 -1.000000 -0.000000
-1.000000 -1.000000 0.194167 -0.000000 -1.000000 -0.000000
-1.000000 -1.000000 -0.611665 -0.000000 -1.000000 -0.000000
1.000000 1.000000 0.194167 0.000000 1.000000 0.000000
1.000000 1.000000 -0.611665 0.000000 1.000000 0.000000
0.000000 1.000000 -0.611665 0.000000 1.000000 0.000000
0.000000 1.000000 0.194167 0.000000 1.000000 0.000000
1.000000 0.999999 1.000000 0.000000 1.000000 0.000000
0.000000 1.000000 1.000000 0.000000 1.000000 0.000000
-1.000000 1.000000 -0.611665 0.000000 1.000000 0.000000
-1.000000 1.000000 0.194167 0.000000 1.000000 0.000000
-1.000000 1.000000 1.000000 0.000000 1.000000 0.000000
-1.000000 0.000000 1.000000 -0.731879 0.000000 0.681435
-1.000000 -1.000000 1.000000 -0.731879 0.000000 0.681435
-0.771163 -0.771163 1.245777 -0.731879 0.000000 0.681435
-0.771163 0.000000 1.245777 -0.731879 0.000000 0.681435
-1.000000 1.000000 1.000000 -0.731879 0.000000 0.681435
-0.771163 0.771163 1.245777 -0.731879 0.000000 0.681435
-0.542326 -0.542326 1.491553 -0.731879 0.000000 0.681435
-0.542326 0.000000 1.491553 -0.731879 0.000000 0.681435
-0.542326 0.542326 1.491553 -0.731879 0.000000 0.681435
-0.000001 -1.000000 1.000000 -0.000000 -0.731879 0.681435
0.999999 -1.000001 1.000000 -0.000000 -0.731879 0.681435
0.771163 -0.771164 1.245777 -0.000000 -0.731879 0.681435
-0.000000 -0.771163 1.245777 -0.000000 -0.731879 0.681435
-1.000000 -1.000000 1.000000 -0.000000 -0.731879 0.681435
-0.771163 -0.771163 1.245777 -0.000000 -0.731879 0.681435
0.542326 -0.542327 1.491553 -0.000000 -0.731879 0.681435
-0.000000 -0.542326 1.491553 -0.000000 -0.731879 0.681435
-0.542326 -0.542326 1.491553 -0.000000 -0.731879 0.681435
0.000000 1.000000 1.000000 0.000000 0.731879 0.681435
-1.000000 1.000000 1.000000 0.000000 0.731879 0.681435
-0.771163 0.771163 1.245777 0.000000 0.731879 0.681435
0.000000 0.771163 1.245777 0.000000 0.731879 0.681435
1.000000 0.999999 1.000000 0.000000 0.731879 0.681435
0.771163 0.771163 1.245777 0.000000 0.731879 0.681435
-0.542326 0.542326 1.491553 0.000000 0.731879 0.681435
0.000000 0.542326 1.491553 0.000000 0.731879 0.681435
0.542326 0.542326 1.491553 0.000000 0.731879 0.681435
1.000000 -0.000001 1.000000 0.731879 -0.000000 0.681435
1.000000 0.999999 1.000000 0.731879 -0.000000 0.681435
0.771163 0.771163 1.245777 0.731879 -0.000000 0.681435
0.771163 -0.000000 1.245777 0.731879 -0.000000 0.681435
0.999999 -1.000001 1.000000 0.731879 -0.000000 0.681435
0.771163 -0.771164 1.245777 0.731879 -0.000000 0.681435
0.542326 0.542326 1.491553 0.731879 -0.000000 0.681435
0.542326 -0.000000 1.491553 0.731879 -0.000000 0.681435
0.542326 -0.542327 1.491553 0.731879 -0.000000 0.681435
0.542326 -0.000000 1.491553 0.485346 -0.000000 -0.874322
0.542326 0.542326 1.491553 0.485346 -0.000000 -0.874322
0.855955 0.855954 1.665652 0.485346 -0.000000 -0.874322
0.855955 -0.000000 1.665652 0.485346 -0.000000 -0.874322
0.542326 -0.542327 1.491553 0.485346 -0.000000 -0.874322
0.855954 -0.855955 1.665652 0.485346 -0.000000 -0.874322
1.169584 1.169583 1.839751 0.485346 -0.000000 -0.874322
1.169583 -0.000001 1.839751 0.485346 -0.000000 -0.874322
1.169582 -1.169584 1.839751 0.485346 -0.000000 -0.874322
0.000000 0.542326 1.491553 0.000000 0.485346 -0.874322
-0.542326 0.542326 1.491553 0.000000 0.485346 -0.874322
-0.855955 0.855955 1.665652 0.000000 0.485346 -0.874322
0.000000 0.855954 1.665652 0.000000 0.485346 -0.874322
0.542326 0.542326 1.491553 0.000000 0.485346 -0.874322
0.855955 0.855954 1.665652 0.000000 0.485346 -0.874322
-1.169583 1.169583 1.839751 0.000000 0.485346 -0.874322
0.000000 1.169583 1.839751 0.000000 0.485346 -0.874322
1.169584 1.169583 1.839751 0.000000 0.485346 -0.874322
-0.000000 -0.542326 1.491553 -0.000000 -0.485346 -0.874322
0.542326 -0.542327 1.491553 -0.000000 -0.485346 -0.874322
0.855954 -0.855955 1.665652 -0.000000 -0.485346 -0.874322
-0.000000 -0.855955 1.665652 -0.000000 -0.485346 -0.874322
-0.542326 -0.542326 1.491553 -0.000000 -0.485346 -0.874322
-0.855955 -0.855954 1.665652 -0.000000 -0.485346 -0.874322
1.169582 -1.169584 1.839751 -0.000000 -0.485346 -0.874322
-0.000001 -1.169583 1.839751 -0.000000 -0.485346 -0.874322
-1.169584 -1.169582 1.839751 -0.000000 -0.485346 -0.874322
-0.542326 0.000000 1.491553 -0.485346 0.000000 -0.874322
-0.542326 -0.542326 1.491553 -0.485346 0.000000 -0.874322
-0.855955 -0.855954 1.665652 -0.485346 0.000000 -0.874322
-0.855955 0.000000 1.665652 -0.485346 0.000000 -0.874322
-0.542326 0.542326 1.491553 -0.485346 0.000000 -0.874322
-0.855955 0.855955 1.665652 -0.485346 0.000000 -0.874322
-1.169584 -1.169582 1.839751 -0.485346 0.000000 -0.874322
-1.169583 0.000000 1.839751 -0.485346 0.000000 -0.874322
-1.169583 1.169583 1.839751 -0.485346 0.000000 -0.874322
-1.169583 0.000000 1.839751 -1.000000 0.000000 0.000000
-1.169584 -1.169582 1.839751 -1.000000 0.000000 0.000000
-1.169584 -1.169582 2.748523 -1.000000 0.000000 0.000000
-1.169583 0.000000 2.748523 -1.000000 0.000000 0.000000
-1.169583 1.169583 1.839751 -1.000000 0.000000 0.000000
-1.169583 1.169583 2.748523 -1.000000 0.000000 0.000000
-1.169584 -1.169582 3.657296 -1.000000 0.000000 0.000000
-1.169583 0.000000 3.657296 -1.000000 0.000000 0.000000
-1.169583 1.169583 3.657296 -1.000000 0.000000 0.000000
-0.000001 -1.169583 1.839751 -0.000000 -1.000000 0.000000
1.169582 -1.169584 1.839751 -0.000000 -1.000000 0.000000
1.169582 -1.169584 2.748523 -0.000000 -1.000000 0.000000
-0.000001 -1.169583 2.748523 -0.000000 -1.000000 0.000000
-1.169584 -1.169582 1.839751 -0.000001 -1.000000 0.000000
-0.000001 -1.169583 1.839751 -0.000001 -1.000000 0.000000
-0.000001 -1.169583 2.748523 -0.000001 -1.000000 0.000000
-1.169584 -1.169582 2.748523 -0.000001 -1.000000 0.000000
1.169582 -1.169584 3.657296 -0.000000 -1.000000 0.000000
-0.000001 -1.169583 3.657296 -0.000000 -1.000000 0.000000
-0.000001 -1.169583 3.657296 -0.000001 -1.000000 0.000000
-1.169584 -1.169582 3.657296 -0.000001 -1.000000 0.000000
0.000000 1.169583 1.839751 0.000000 1.000000 0.000000
-1.169583 1.169583 1.839751 0.000000 1.000000 0.000000
-1.169583 1.169583 2.748523 0.000000 1.000000 0.000000
0.000000 1.169583 2.748523 0.000000 1.000000 0.000000
1.169584 1.169583 1.839751 0.000000 1.000000 0.000000
1.169584 1.169583 2.748523 0.000000 1.000000 0.000000
-1.169583 1.169583 3.657296 0.000000 1.000000 0.000000
0.000000 1.169583 3.657296 0.000000 1.000000 0.000000
1.169584 1.169583 3.657296 0.000000 1.000000 0.000000
1.169583 -0.000001 1.839751 1.000000 -0.000001 0.000000
1.169584 1.169583 1.839751 1.000000 -0.000001 0.000000
1.169584 1.169583 2.748523 1.000000 -0.000001 0.000000
1.169583 -0.000001 2.748523 1.000000 -0.000001 0.000000
1.169582 -1.169584 1.839751 1.000000 -0.000001 0.000000
1.169582 -1.169584 2.748523 1.000000 -0.000001 0.000000
1.169584 1.169583 3.657296 1.000000 -0.000001 0.000000
1.169583 -0.000001 3.657296 1.000000 -0.000001 0.000000
1.169582 -1.169584 3.657296 1.000000 -0.000001 0.000000
0.000000 1.169583 3.657296 0.000000 -0.000000 1.000000
-1.169583 1.169583 3.657296 0.000000 -0.000000 1.000000
-1.169583 0.000000 3.657296 0.000000 -0.000000 1.000000
-0.000000 -0.000000 3.657296 0.000000 -0.000000 1.000000
1.169584 1.169583 3.657296 0.000000 -0.000000 1.000000
1.169583 -0.000001 3.657296 0.000000 -0.000000 1.000000
-1.169584 -1.169582 3.657296 0.000000 -0.000000 1.000000
-0.000001 -1.169583 3.657296 0.000000 -0.000000 1.000000
1.169582 -1.169584 3.657296 0.000000 -0.000000 1.000000
-0.681105 -1.000000 -1.478090 -0.000000 -1.000000 -0.000000
-0.000000 -1.000000 -1.478090 -0.000000 -1.000000 -0.000000
0.681105 -1.000000 -1.478090 -0.000000 -1.000000 0.000000
-0.362210 -1.000000 -2.344515 -0.000000 -1.000000 -0.000000
-0.000000 -1.000000 -2.344515 -0.000000 -1.000000 -0.000000
0.362210 -1.000000 -2.344515 -0.000000 -1.000000 0.000000
0.681105 1.000000 -1.478090 0.000000 1.000000 -0.000000
0.000000 1.000000 -1.478090 0.000000 1.000000 -0.000000
-0.681105 1.000000 -1.478090 0.000000 1.000000 0.000000
0.000000 1.000000 -1.478090 0.000001 1.000000 -0.000000
0.681105 1.000000 -1.478090 0.000001 1.000000 -0.000000
0.362210 1.000000 -2.344515 0.000001 1.000000 -0.000000
0.000000 1.000000 -2.344515 0.000001 1.000000 -0.000000
0.000000 1.000000 -2.344515 0.000000 1.000000 0.000000
-0.362210 1.000000 -2.344515 0.000000 1.000000 0.000000
0.362210 -0.000000 -2.344515 0.000000 0.000000 -1.000000
0.362210 -1.000000 -2.344515 0.000000 0.000000 -1.000000
-0.000000 -1.000000 -2.344515 0.000000 0.000000 -1.000000
0.000000 0.000000 -2.344515 0.000000 0.000000 -1.000000
0.362210 1.000000 -2.344515 0.000000 0.000000 -1.000000
0.000000 1.000000 -2.344515 0.000000 0.000000 -1.000000
0.000000 0.000000 -2.344515 0.000001 -0.000000 -1.000000
-0.000000 -1.000000 -2.344515 0.000001 -0.000000 -1.000000
-0.362210 -1.000000 -2.344515 0.000001 -0.000000 -1.000000
-0.362210 0.000000 -2.344515 0.000001 -0.000000 -1.000000
0.000000 1.000000 -2.344515 0.000001 -0.000000 -1.000000
-0.362210 1.000000 -2.344515 0.000001 -0.000000 -1.000000
0.362210 -0.000000 -2.344515 -0.782691 0.000000 -0.622411
0.362210 1.000000 -2.344515 -0.782691 0.000000 -0.622411
0.521442 0.753859 -2.544751 -0.782691 0.000000 -0.622411
0.521442 -0.000000 -2.544751 -0.782691 0.000000 -0.622411
0.362210 -1.000000 -2.344515 -0.782691 0.000000 -0.622411
0.521442 -0.753859 -2.544751 -0.782691 0.000000 -0.622411
0.680673 0.507718 -2.744987 -0.782691 0.000000 -0.622411
0.680673 -0.000000 -2.744987 -0.782691 0.000000 -0.622411
0.521442 -0.753859 -2.544751 -0.782691 0.000000 -0.622410
0.521442 -0.000000 -2.544751 -0.782691 0.000000 -0.622410
0.680673 -0.000000 -2.744987 -0.782691 0.000000 -0.622410
0.680673 -0.507718 -2.744987 -0.782691 0.000000 -0.622410
0.681105 1.000000 -1.478090 0.507834 0.833432 -0.217936
1.000000 1.000000 -0.611665 0.507834 0.833432 -0.217936
1.187911 0.753859 -1.238426 0.507834 0.833432 -0.217936
0.854677 0.753859 -1.891589 0.507834 0.833432 -0.217936
0.362210 1.000000 -2.344515 0.614196 0.743833 -0.263582
0.681105 1.000000 -1.478090 0.614196 0.743833 -0.263582
0.854677 0.753859 -1.891589 0.614196 0.743833 -0.263582
0.521442 0.753859 -2.544751 0.614196 0.743833 -0.263582
0.854677 0.753859 -1.891589 0.422867 0.867072 -0.263381
1.187911 0.753859 -1.238426 0.422867 0.867072 -0.263381
1.375823 0.507718 -1.865187 0.422867 0.867072 -0.263381
1.028248 0.507718 -2.305087 0.422867 0.867072 -0.263381
0.521442 0.753859 -2.544751 0.534687 0.776661 -0.333028
0.854677 0.753859 -1.891589 0.534687 0.776661 -0.333028
1.028248 0.507718 -2.305087 0.534687 0.776661 -0.333028
0.680673 0.507718 -2.744987 0.534687 0.776661 -0.333028
0.681105 -1.000000 -1.478090 0.614196 -0.743833 -0.263582
0.362210 -1.000000 -2.344515 0.614196 -0.743833 -0.263582
0.521442 -0.753859 -2.544751 0.614196 -0.743833 -0.263582
0.854677 -0.753859 -1.891589 0.614196 -0.743833 -0.263582
1.000000 -1.000000 -0.611665 0.507833 -0.833432 -0.217936
0.681105 -1.000000 -1.478090 0.507833 -0.833432 -0.217936
0.854677 -0.753859 -1.891589 0.507833 -0.833432 -0.217936
1.187911 -0.753859 -1.238426 0.507833 -0.833432 -0.217936
0.854677 -0.753859 -1.891589 0.534687 -0.776661 -0.333028
0.521442 -0.753859 -2.544751 0.534687 -0.776661 -0.333028
0.680673 -0.507718 -2.744987 0.534687 -0.776661 -0.333028
1.028248 -0.507718 -2.305087 0.534687 -0.776661 -0.333028
1.187911 -0.753859 -1.238426 0.422867 -0.867072 -0.263381
0.854677 -0.753859 -1.891589 0.422867 -0.867072 -0.263381
1.028248 -0.507718 -2.305087 0.422867 -0.867072 -0.263381
1.375823 -0.507718 -1.865187 0.422867 -0.867072 -0.263381
1.000000 -0.000000 -0.611665 0.957875 0.000000 0.287184
1.000000 -1.000000 -0.611665 0.957875 0.000000 0.287184
1.187911 -0.753859 -1.238426 0.957875 0.000000 0.287184
1.187911 -0.000000 -1.238426 0.957875 0.000000 0.287184
1.000000 1.000000 -0.611665 0.957875 0.000000 0.287184
1.187911 0.753859 -1.238426 0.957875 0.000000 0.287184
1.375823 -0.507718 -1.865187 0.957875 0.000000 0.287184
1.375823 -0.000000 -1.865187 0.957875 0.000000 0.287184
1.375823 0.507718 -1.865187 0.957875 0.000000 0.287184
-0.681105 -1.000000 -1.478090 -0.529429 -0.816129 -0.231600
-1.000000 -1.000000 -0.611665 -0.529429 -0.816129 -0.231600
-1.166153 -0.744461 -1.269775 -0.529429 -0.816129 -0.231600
-0.823862 -0.744461 -1.914795 -0.529429 -0.816129 -0.231600
-0.362210 -1.000000 -2.344515 -0.653959 -0.700356 -0.286076
-0.681105 -1.000000 -1.478090 -0.653959 -0.700356 -0.286076
-0.823862 -0.744461 -1.914795 -0.653959 -0.700356 -0.286076
-0.481570 -0.744461 -2.559815 -0.653959 -0.700356 -0.286076
-0.823862 -0.744461 -1.914795 -0.425089 -0.860225 -0.281625
-1.166153 -0.744461 -1.269775 -0.425089 -0.860225 -0.281625
-1.332306 -0.488922 -1.927885 -0.425089 -0.860225 -0.281625
-0.966618 -0.488922 -2.351500 -0.425089 -0.860225 -0.281625
-0.481570 -0.744461 -2.559815 -0.551884 -0.749493 -0.365628
-0.823862 -0.744461 -1.914795 -0.551884 -0.749493 -0.365628
-0.966618 -0.488922 -2.351500 -0.551884 -0.749493 -0.365628
-0.600931 -0.488922 -2.775114 -0.551884 -0.749493 -0.365628
-0.362210 0.000000 -2.344515 0.874589 -0.000000 -0.484865
-0.362210 -1.000000 -2.344515 0.874589 -0.000000 -0.484865
-0.481570 -0.744461 -2.559815 0.874589 -0.000000 -0.484865
-0.481570 0.000000 -2.559815 0.874589 -0.000000 -0.484865
-0.362210 1.000000 -2.344515 0.874589 -0.000000 -0.484865
-0.481570 0.744461 -2.559815 0.874589 -0.000000 -0.484865
-0.600931 -0.488922 -2.775114 0.874589 -0.000000 -0.484865
-0.600931 0.000000 -2.775114 0.874589 -0.000000 -0.484865
-0.600930 0.488922 -2.775114 0.874589 -0.000000 -0.484865
-0.681105 1.000000 -1.478090 -0.653959 0.700356 -0.286076
-0.362210 1.000000 -2.344515 -0.653959 0.700356 -0.286076
-0.481570 0.744461 -2.559815 -0.653959 0.700356 -0.286076
-0.823862 0.744461 -1.914795 -0.653959 0.700356 -0.286076
-1.000000 1.000000 -0.611665 -0.529429 0.816129 -0.231600
-0.681105 1.000000 -1.478090 -0.529429 0.816129 -0.231600
-0.823862 0.744461 -1.914795 -0.529429 0.816129 -0.231600
-1.166153 0.744461 -1.269775 -0.529429 0.816129 -0.231600
-0.823862 0.744461 -1.914795 -0.551884 0.749493 -0.365628
-0.481570 0.744461 -2.559815 -0.551884 0.749493 -0.365628
-0.600930 0.488922 -2.775114 -0.551884 0.749493 -0.365628
-0.966618 0.488922 -2.351500 -0.551884 0.749493 -0.365628
-1.166153 0.744461 -1.269775 -0.425089 0.860225 -0.281625
-0.823862 0.744461 -1.914795 -0.425089 0.860225 -0.281625
-0.966618 0.488922 -2.351500 -0.425089 0.860225 -0.281625
-1.332306 0.488922 -1.927885 -0.425089 0.860225 -0.281625
-1.000000 0.000000 -0.611665 -0.969576 0.000000 0.244789
-1.000000 1.000000 -0.611665 -0.969576 0.000000 0.244789
-1.166153 0.744461 -1.269775 -0.969576 0.000000 0.244789
-1.166153 0.000000 -1.269775 -0.969576 0.000000 0.244789
-1.000000 -1.000000 -0.611665 -0.969576 0.000000 0.244789
-1.166153 -0.744461 -1.269775 -0.969576 0.000000 0.244789
-1.332306 0.488922 -1.927885 -0.969576 0.000000 0.244789
-1.332306 0.000000 -1.927885 -0.969576 0.000000 0.244789
-1.332306 -0.488922 -1.927885 -0.969576 0.000000 0.244789
1.375823 -0.000000 -1.865187 0.992019 0.000000 0.126089
1.375823 -0.507718 -1.865187 0.992019 0.000000 0.126089
1.490304 -0.507718 -2.765875 0.992019 0.000000 0.126089
1.490304 -0.000000 -2.765875 0.992019 0.000000 0.126089
1.375823 0.507718 -1.865187 0.992019 0.000000 0.126089
1.490304 0.507718 -2.765875 0.992019 0.000000 0.126089
1.604784 -0.507718 -3.666564 0.992019 0.000000 0.126089
1.604784 0.000000 -3.666564 0.992019 0.000000 0.126089
1.604784 0.507718 -3.666564 0.992019 0.000000 0.126089
1.028248 -0.507718 -2.305087 0.000000 -1.000000 0.000000
0.680673 -0.507718 -2.744987 0.000000 -1.000000 0.000000
0.700655 -0.507718 -3.211989 0.000000 -1.000000 0.000000
1.095479 -0.507718 -2.988932 0.000000 -1.000000 0.000000
1.375823 -0.507718 -1.865187 -0.000000 -1.000000 -0.000000
1.490304 -0.507718 -2.765875 -0.000000 -1.000000 -0.000000
0.720638 -0.507718 -3.678991 0.000000 -1.000000 0.000000
1.162711 -0.507718 -3.672777 0.000000 -1.000000 0.000000
1.604784 -0.507718 -3.666564 0.000000 -1.000000 -0.000000
1.028248 0.507718 -2.305087 0.000000 1.000000 0.000000
1.375823 0.507718 -1.865187 0.000000 1.000000 0.000000
1.490304 0.507718 -2.765875 0.000000 1.000000 0.000000
1.095479 0.507718 -2.988932 0.000000 1.000000 0.000000
0.680673 0.507718 -2.744987 -0.000000 1.000000 0.000000
0.700655 0.507718 -3.211989 -0.000000 1.000000 0.000000
1.604784 0.507718 -3.666564 0.000000 1.000000 0.000000
1.162711 0.507718 -3.672777 0.000000 1.000000 0.000000
0.720638 0.507718 -3.678991 -0.000000 1.000000 0.000000
0.680673 -0.000000 -2.744987 -0.999086 0.000000 -0.042749
0.680673 0.507718 -2.744987 -0.999086 0.000000 -0.042749
0.700655 0.507718 -3.211989 -0.999086 0.000000 -0.042749
0.700655 -0.000000 -3.211989 -0.999086 0.000000 -0.042749
0.680673 -0.507718 -2.744987 -0.999086 0.000000 -0.042749
0.700655 -0.507718 -3.211989 -0.999086 0.000000 -0.042749
0.720638 0.507718 -3.678991 -0.999086 0.000000 -0.042749
0.720638 0.000000 -3.678991 -0.999086 0.000000 -0.042749
0.720638 -0.507718 -3.678991 -0.999086 0.000000 -0.042749
-1.332306 0.000000 -1.927885 -0.987736 0.000000 0.156135
-1.332306 0.488922 -1.927885 -0.987736 0.000000 0.156135
-1.476215 0.488923 -2.838277 -0.987736 0.000000 0.156135
-1.476215 0.000001 -2.838277 -0.987736 0.000000 0.156135
-1.332306 -0.488922 -1.927885 -0.987736 0.000000 0.156135
-1.476216 -0.488922 -2.838277 -0.987736 0.000000 0.156135
-1.620125 0.488923 -3.748668 -0.987736 0.000000 0.156135
-1.620125 0.000001 -3.748668 -0.987736 0.000000 0.156135
-1.620125 -0.488921 -3.748668 -0.987736 0.000000 0.156135
-0.966618 0.488922 -2.351500 0.000000 1.000000 0.000001
-0.600930 0.488922 -2.775114 0.000000 1.000000 0.000001
-0.650360 0.488923 -3.245503 0.000000 1.000000 0.000001
-1.063287 0.488923 -3.041890 0.000000 1.000000 0.000001
-1.332306 0.488922 -1.927885 0.000000 1.000000 0.000000
-0.966618 0.488922 -2.351500 0.000000 1.000000 0.000000
-1.063287 0.488923 -3.041890 0.000000 1.000000 0.000000
-1.476215 0.488923 -2.838277 0.000000 1.000000 0.000000
-0.699789 0.488923 -3.715892 0.000000 1.000000 0.000001
-1.159957 0.488923 -3.732280 0.000000 1.000000 0.000001
-1.159957 0.488923 -3.732280 0.000000 1.000000 0.000000
-1.620125 0.488923 -3.748668 0.000000 1.000000 0.000000
-0.600931 0.000000 -2.775114 0.994524 -0.000000 -0.104506
-0.600931 -0.488922 -2.775114 0.994524 -0.000000 -0.104506
-0.650360 -0.488922 -3.245503 0.994524 -0.000000 -0.104506
-0.650360 0.000001 -3.245503 0.994524 -0.000000 -0.104506
-0.600930 0.488922 -2.775114 0.994524 -0.000000 -0.104506
-0.650360 0.488923 -3.245503 0.994524 -0.000000 -0.104506
-0.699789 -0.488921 -3.715892 0.994524 -0.000000 -0.104506
-0.699789 0.000001 -3.715892 0.994524 -0.000000 -0.104506
-0.699789 0.488923 -3.715892 0.994524 -0.000000 -0.104506
-0.966618 -0.488922 -2.351500 -0.000000 -1.000000 -0.000000
-1.332306 -0.488922 -1.927885 -0.000000 -1.000000 -0.000000
-1.476216 -0.488922 -2.838277 -0.000000 -1.000000 -0.000000
-1.063288 -0.488922 -3.041890 -0.000000 -1.000000 -0.000000
-0.600931 -0.488922 -2.775114 -0.000000 -1.000000 -0.000001
-0.966618 -0.488922 -2.351500 -0.000000 -1.000000 -0.000001
-1.063288 -0.488922 -3.041890 -0.000000 -1.000000 -0.000001
-0.650360 -0.488922 -3.245503 -0.000000 -1.000000 -0.000001
-1.620125 -0.488921 -3.748668 -0.000000 -1.000000 -0.000000
-1.159957 -0.488921 -3.732280 -0.000000 -1.000000 -0.000000
-1.159957 -0.488921 -3.732280 -0.000000 -1.000000 -0.000001
-0.699789 -0.488921 -3.715892 -0.000000 -1.000000 -0.000001
-1.620125 -0.488921 -4.636555 0.000000 -1.000000 0.000000
-1.159957 -0.488921 -4.620167 0.000000 -1.000000 0.000000
-0.699789 -0.488921 -3.715892 0.000000 -1.000000 0.000000
-0.699789 -0.488921 -4.603779 0.000000 -1.000000 0.000000
-1.620125 -0.488921 -5.524441 -0.000000 -1.000000 0.000000
-1.159957 -0.488921 -5.508053 -0.000000 -1.000000 0.000000
-0.699789 -0.488921 -5.491665 -0.000000 -1.000000 0.000000
-0.699789 0.000001 -3.715892 1.000000 -0.000000 -0.000000
-0.699789 -0.488921 -3.715892 1.000000 -0.000000 -0.000000
-0.699789 -0.488921 -4.603779 1.000000 -0.000000 -0.000000
-0.699789 0.000001 -4.603778 1.000000 -0.000000 -0.000000
-0.699789 0.488923 -3.715892 1.000000 -0.000000 -0.000000
-0.699789 0.488923 -4.603778 1.000000 -0.000000 -0.000000
-0.699789 -0.488921 -5.491665 1.000000 -0.000000 0.000000
-0.699789 0.000001 -5.491665 1.000000 -0.000000 0.000000
-0.699789 0.488923 -5.491665 1.000000 -0.000000 0.000000
-0.699789 0.488923 -3.715892 0.000000 1.000000 -0.000000
-0.699789 0.488923 -4.603778 0.000000 1.000000 -0.000000
-1.159957 0.488923 -4.620167 0.000000 1.000000 -0.000000
-1.620125 0.488923 -4.636555 0.000000 1.000000 -0.000000
-0.699789 0.488923 -5.491665 0.000000 1.000000 -0.000000
-1.159957 0.488923 -5.508053 0.000000 1.000000 -0.000000
-1.620125 0.488923 -5.524441 0.000000 1.000000 -0.000000
-1.620125 0.000001 -3.748668 -1.000000 0.000000 0.000000
-1.620125 0.488923 -3.748668 -1.000000 0.000000 0.000000
-1.620125 0.488923 -4.636555 -1.000000 0.000000 0.000000
-1.620125 0.000001 -4.636555 -1.000000 0.000000 0.000000
-1.620125 -0.488921 -3.748668 -1.000000 0.000000 0.000000
-1.620125 -0.488921 -4.636555 -1.000000 0.000000 0.000000
-1.620125 0.488923 -5.524441 -1.000000 0.000000 0.000000
-1.620125 0.000001 -5.524441 -1.000000 0.000000 0.000000
-1.620125 -0.488921 -5.524441 -1.000000 0.000000 0.000000
-1.620125 0.000001 -5.524441 0.035590 0.000000 -0.999366
-1.620125 0.488923 -5.524441 0.035590 0.000000 -0.999366
-1.159957 0.488923 -5.508053 0.035590 0.000000 -0.999366
-1.159957 0.000001 -5.508053 0.035590 0.000000 -0.999366
-1.620125 -0.488921 -5.524441 0.035590 -0.000000 -0.999367
-1.620125 0.000001 -5.524441 0.035590 -0.000000 -0.999367
-1.159957 0.000001 -5.508053 0.035590 -0.000000 -0.999367
-1.159957 -0.488921 -5.508053 0.035590 -0.000000 -0.999367
-1.159957 0.488923 -5.508053 0.035590 -0.000000 -0.999367
-0.699789 0.488923 -5.491665 0.035590 -0.000000 -0.999367
-0.699789 0.000001 -5.491665 0.035590 -0.000000 -0.999367
-0.699789 -0.488921 -5.491665 0.035590 -0.000000 -0.999367
0.720638 0.000000 -3.678991 -1.000000 0.000000 -0.000367
0.720638 0.507718 -3.678991 -1.000000 0.000000 -0.000367
0.720964 0.507718 -4.566176 -1.000000 0.000000 -0.000367
0.720964 0.000000 -4.566176 -1.000000 0.000000 -0.000367
0.720638 -0.507718 -3.678991 -1.000000 0.000000 -0.000367
0.720964 -0.507718 -4.566176 -1.000000 0.000000 -0.000367
0.721290 0.507718 -5.453362 -1.000000 0.000000 -0.000367
0.721290 0.000000 -5.453362 -1.000000 0.000000 -0.000367
0.721290 -0.507718 -5.453362 -1.000000 0.000000 -0.000367
1.605110 0.507718 -4.553749 0.000000 1.000000 -0.000000
1.163037 0.507718 -4.559962 0.000000 1.000000 -0.000000
0.720964 0.507718 -4.566176 -0.000000 1.000000 -0.000000
1.605436 0.507718 -5.440933 0.000000 1.000000 -0.000000
1.163363 0.507718 -5.447147 0.000000 1.000000 -0.000000
0.721290 0.507718 -5.453362 -0.000000 1.000000 -0.000000
0.720964 -0.507718 -4.566176 0.000000 -1.000000 0.000000
1.163037 -0.507718 -4.559962 0.000000 -1.000000 0.000000
1.605110 -0.507718 -4.553749 0.000000 -1.000000 0.000000
0.721290 -0.507718 -5.453362 0.000000 -1.000000 0.000000
1.163363 -0.507718 -5.447147 0.000000 -1.000000 0.000000
1.605436 -0.507718 -5.440933 0.000000 -1.000000 0.000000
1.604784 0.000000 -3.666564 1.000000 0.000000 0.000367
1.604784 -0.507718 -3.666564 1.000000 0.000000 0.000367
1.605110 -0.507718 -4.553749 1.000000 0.000000 0.000367
1.605110 0.000000 -4.553749 1.000000 0.000000 0.000367
1.604784 0.507718 -3.666564 1.000000 0.000000 0.000367
1.605110 0.507718 -4.553749 1.000000 0.000000 0.000367
1.605436 -0.507718 -5.440933 1.000000 0.000000 0.000367
1.605436 0.000000 -5.440933 1.000000 0.000000 0.000367
1.605436 0.507718 -5.440933 1.000000 0.000000 0.000367
1.605436 0.000000 -5.440933 0.014055 0.000000 -0.999901
1.605436 -0.507718 -5.440933 0.014055 0.000000 -0.999901
1.163363 -0.507718 -5.447147 0.014055 0.000000 -0.999901
1.163363 0.000000 -5.447147 0.014055 0.000000 -0.999901
1.605436 0.507718 -5.440933 0.014055 0.000000 -0.999901
1.163363 0.507718 -5.447147 0.014055 0.000000 -0.999901
0.721290 -0.507718 -5.453362 0.014055 0.000000 -0.999901
0.721290 0.000000 -5.453362 0.014055 0.000000 -0.999901
0.721290 0.507718 -5.453362 0.014055 0.000000 -0.999901
1.000000 -0.000001 1.000000 -0.001283 0.000000 0.999999
0.999999 -1.000001 1.000000 -0.001283 0.000000 0.999999
1.306694 -1.000001 1.000394 -0.001283 0.000000 0.999999
1.306694 -0.000001 1.000394 -0.001283 0.000000 0.999999
1.000000 0.999999 1.000000 -0.001283 0.000000 0.999999
1.306695 0.999999 1.000394 -0.001283 0.000000 0.999999
1.613388 -1.000001 1.000787 -0.001283 0.000000 0.999999
1.613389 -0.000001 1.000787 -0.001283 0.000000 0.999999
1.613389 0.999999 1.000787 -0.001283 0.000000 0.999999
1.000000 -1.000000 0.194167 -0.000001 -1.000000 -0.000000
1.000000 -1.000000 -0.611665 -0.000001 -1.000000 -0.000000
1.306694 -1.000000 -0.272458 -0.000001 -1.000000 -0.000000
1.306694 -1.000001 0.363968 -0.000001 -1.000000 -0.000000
0.999999 -1.000001 1.000000 -0.000001 -1.000000 -0.000000
1.306694 -1.000001 1.000394 -0.000001 -1.000000 -0.000000
1.306694 -1.000001 0.363968 -0.000001 -1.000000 -0.000001
1.306694 -1.000000 -0.272458 -0.000001 -1.000000 -0.000001
1.613389 -1.000001 0.066750 -0.000001 -1.000000 -0.000001
1.613389 -1.000001 0.533769 -0.000001 -1.000000 -0.000001
1.306694 -1.000001 1.000394 -0.000001 -1.000000 -0.000001
1.613388 -1.000001 1.000787 -0.000001 -1.000000 -0.000001
1.000000 1.000000 0.194167 0.000001 1.000000 0.000000
1.000000 0.999999 1.000000 0.000001 1.000000 0.000000
1.306695 0.999999 1.000394 0.000001 1.000000 0.000000
1.306695 0.999999 0.363968 0.000001 1.000000 0.000000
1.000000 1.000000 -0.611665 0.000001 1.000000 0.000000
1.306694 1.000000 -0.272458 0.000001 1.000000 0.000000
1.613389 0.999999 1.000787 0.000001 1.000000 0.000000
1.613389 0.999999 0.533769 0.000001 1.000000 0.000000
1.613389 0.999999 0.066750 0.000001 1.000000 0.000000
1.000000 -0.000000 -0.611665 0.741762 0.000000 -0.670664
1.000000 1.000000 -0.611665 0.741762 0.000000 -0.670664
1.306694 1.000000 -0.272458 0.741762 0.000000 -0.670664
1.306694 -0.000000 -0.272458 0.741762 0.000000 -0.670664
1.000000 -1.000000 -0.611665 0.741762 0.000000 -0.670664
1.306694 -1.000000 -0.272458 0.741762 0.000000 -0.670664
1.613389 0.999999 0.066750 0.741762 0.000000 -0.670664
1.613389 -0.000001 0.066750 0.741762 0.000000 -0.670664
1.613389 -1.000001 0.066750 0.741762 0.000000 -0.670664
-1.000000 0.000000 1.000000 -0.091626 0.000000 0.995793
-1.000000 1.000000 1.000000 -0.091626 0.000000 0.995793
-1.314193 1.000000 0.971090 -0.091626 0.000000 0.995793
-1.314193 -0.000000 0.971090 -0.091626 0.000000 0.995793
-1.000000 -1.000000 1.000000 -0.091626 0.000000 0.995793
-1.314193 -1.000000 0.971090 -0.091626 0.000000 0.995793
-1.628385 0.999999 0.942180 -0.091626 0.000000 0.995793
-1.628386 -0.000000 0.942180 -0.091626 0.000000 0.995793
-1.314193 -1.000000 0.971090 -0.091626 0.000000 0.995794
-1.314193 -0.000000 0.971090 -0.091626 0.000000 0.995794
-1.628386 -0.000000 0.942180 -0.091626 0.000000 0.995794
-1.628386 -1.000000 0.942180 -0.091626 0.000000 0.995794
-1.000000 1.000000 0.194167 -0.000001 1.000000 0.000000
-1.000000 1.000000 -0.611665 -0.000001 1.000000 0.000000
-1.314192 1.000000 -0.290816 -0.000001 1.000000 0.000000
-1.314193 1.000000 0.340137 -0.000001 1.000000 0.000000
-1.000000 1.000000 1.000000 -0.000001 1.000000 0.000000
-1.314193 1.000000 0.971090 -0.000001 1.000000 0.000000
-1.628385 1.000000 0.030033 -0.000001 1.000000 0.000000
-1.628385 1.000000 0.486107 -0.000001 1.000000 0.000000
-1.628385 0.999999 0.942180 -0.000001 1.000000 0.000000
-1.000000 -1.000000 0.194167 0.000001 -1.000000 0.000000
-1.000000 -1.000000 1.000000 0.000001 -1.000000 0.000000
-1.314193 -1.000000 0.971090 0.000001 -1.000000 0.000000
-1.314193 -1.000000 0.340137 0.000001 -1.000000 0.000000
-1.000000 -1.000000 -0.611665 0.000001 -1.000000 0.000000
-1.314193 -1.000000 -0.290816 0.000001 -1.000000 0.000000
-1.628386 -1.000000 0.942180 0.000001 -1.000000 0.000000
-1.628385 -1.000000 0.486107 0.000001 -1.000000 0.000000
-1.628385 -1.000000 0.030033 0.000001 -1.000000 0.000000
-1.000000 0.000000 -0.611665 -0.714479 0.000000 -0.699657
-1.000000 -1.000000 -0.611665 -0.714479 0.000000 -0.699657
-1.314193 -1.000000 -0.290816 -0.714479 0.000000 -0.699657
-1.314192 -0.000000 -0.290816 -0.714479 0.000000 -0.699657
-1.000000 1.000000 -0.611665 -0.714479 0.000000 -0.699657
-1.314192 1.000000 -0.290816 -0.714479 0.000000 -0.699657
-1.628385 -1.000000 0.030033 -0.714479 0.000000 -0.699657
-1.628385 -0.000000 0.030033 -0.714479 0.000000 -0.699657
-1.628385 1.000000 0.030033 -0.714479 0.000000 -0.699657
-1.628385 -0.000000 0.030033 0.000000 -0.000000 -1.000000
-1.628385 -1.000000 0.030033 0.000000 -0.000000 -1.000000
-2.571845 -0.743997 0.030032 0.000000 -0.000000 -1.000000
-2.571845 -0.000000 0.030032 0.000000 -0.000000 -1.000000
-1.628385 1.000000 0.030033 0.000000 -0.000000 -1.000000
-2.571845 0.743997 0.030032 0.000000 -0.000000 -1.000000
-3.515305 -0.487993 0.030032 0.000000 -0.000000 -1.000000
-3.515305 0.000000 0.030032 0.000000 -0.000000 -1.000000
-3.515305 0.487994 0.030032 0.000000 -0.000000 -1.000000
-1.628385 -1.000000 0.486107 -0.261876 -0.965101 -0.000000
-1.628386 -1.000000 0.942180 -0.261876 -0.965101 -0.000000
-2.571846 -0.743997 0.942180 -0.261876 -0.965101 -0.000000
-2.571845 -0.743997 0.486106 -0.261876 -0.965101 -0.000000
-1.628385 -1.000000 0.030033 -0.261876 -0.965101 0.000000
-2.571845 -0.743997 0.030032 -0.261876 -0.965101 0.000000
-2.571845 -0.743997 0.486106 -0.261876 -0.965102 -0.000000
-2.571846 -0.743997 0.942180 -0.261876 -0.965102 -0.000000
-3.515306 -0.487993 0.942179 -0.261876 -0.965102 -0.000000
-3.515305 -0.487993 0.486106 -0.261876 -0.965102 -0.000000
-2.571845 -0.743997 0.030032 -0.261876 -0.965102 -0.000000
-3.515305 -0.487993 0.030032 -0.261876 -0.965102 -0.000000
-1.628385 1.000000 0.486107 -0.261875 0.965102 0.000000
-1.628385 1.000000 0.030033 -0.261875 0.965102 0.000000
-2.571845 0.743997 0.030032 -0.261875 0.965102 0.000000
-2.571845 0.743997 0.486106 -0.261875 0.965102 0.000000
-1.628385 0.999999 0.942180 -0.261875 0.965102 0.000000
-2.571845 0.743996 0.942180 -0.261875 0.965102 0.000000
-3.515305 0.487994 0.030032 -0.261875 0.965102 0.000000
-3.515305 0.487994 0.486106 -0.261875 0.965102 0.000000
-3.515305 0.487994 0.942179 -0.261875 0.965102 0.000000
-1.628386 -0.000000 0.942180 -0.000001 0.000000 1.000000
-1.628385 0.999999 0.942180 -0.000001 0.000000 1.000000
-2.571845 0.743996 0.942180 -0.000001 0.000000 1.000000
-2.571845 -0.000000 0.942180 -0.000001 0.000000 1.000000
-1.628386 -1.000000 0.942180 -0.000001 0.000000 1.000000
-2.571846 -0.743997 0.942180 -0.000001 0.000000 1.000000
-2.571845 -0.000000 0.942180 -0.000000 0.000000 1.000000
-2.571845 0.743996 0.942180 -0.000000 0.000000 1.000000
-3.515305 0.487994 0.942179 -0.000000 0.000000 1.000000
-3.515305 0.000000 0.942179 -0.000000 0.000000 1.000000
-2.571846 -0.743997 0.942180 -0.000000 0.000000 1.000000
-3.515306 -0.487993 0.942179 -0.000000 0.000000 1.000000
-3.515305 0.000000 0.942179 -0.000001 0.000000 1.000000
-3.515305 0.487994 0.942179 -0.000001 0.000000 1.000000
-4.444530 0.487994 0.942179 -0.000001 0.000000 1.000000
-4.444531 0.000000 0.942179 -0.000001 0.000000 1.000000
-3.515306 -0.487993 0.942179 -0.000001 0.000000 1.000000
-4.444531 -0.487993 0.942179 -0.000001 0.000000 1.000000
-5.373756 0.487994 0.942178 -0.000001 0.000000 1.000000
-5.373756 0.000000 0.942178 -0.000001 0.000000 1.000000
-5.373757 -0.487993 0.942178 -0.000001 0.000000 1.000000
-3.515305 0.487994 0.486106 0.000000 1.000000 0.000000
-3.515305 0.487994 0.030032 0.000000 1.000000 0.000000
-4.444530 0.487994 0.030031 0.000000 1.000000 0.000000
-4.444530 0.487994 0.486105 0.000000 1.000000 0.000000
-3.515305 0.487994 0.942179 0.000000 1.000000 0.000000
-4.444530 0.487994 0.942179 0.000000 1.000000 0.000000
-5.373756 0.487994 0.030031 0.000000 1.000000 0.000000
-5.373756 0.487994 0.486105 0.000000 1.000000 0.000000
-5.373756 0.487994 0.942178 0.000000 1.000000 0.000000
-3.515305 -0.487993 0.486106 -0.000000 -1.000000 0.000000
-3.515306 -0.487993 0.942179 -0.000000 -1.000000 0.000000
-4.444531 -0.487993 0.942179 -0.000000 -1.000000 0.000000
-4.444531 -0.487993 0.486105 -0.000000 -1.000000 0.000000
-3.515305 -0.487993 0.030032 -0.000000 -1.000000 0.000000
-4.444530 -0.487993 0.030031 -0.000000 -1.000000 0.000000
-5.373757 -0.487993 0.942178 -0.000000 -1.000000 0.000000
-5.373756 -0.487993 0.486105 -0.000000 -1.000000 0.000000
-5.373756 -0.487993 0.030031 -0.000000 -1.000000 0.000000
-3.515305 0.000000 0.030032 0.000001 -0.000000 -1.000000
-3.515305 -0.487993 0.030032 0.000001 -0.000000 -1.000000
-4.444530 -0.487993 0.030031 0.000001 -0.000000 -1.000000
-4.444530 0.000000 0.030031 0.000001 -0.000000 -1.000000
-3.515305 0.487994 0.030032 0.000001 -0.000000 -1.000000
-4.444530 0.487994 0.030031 0.000001 -0.000000 -1.000000
-5.373756 -0.487993 0.030031 0.000001 0.000000 -1.000000
-5.373756 0.000001 0.030031 0.000001 0.000000 -1.000000
-5.373756 0.487994 0.030031 0.000001 -0.000000 -1.000000
-5.373756 -0.487993 0.486105 -1.000000 0.000001 -0.000001
-5.373757 -0.487993 0.942178 -1.000000 0.000001 -0.000001
-5.373756 0.000000 0.942178 -1.000000 0.000001 -0.000001
-5.373756 0.000001 0.486105 -1.000000 0.000001 -0.000001
-5.373756 -0.487993 0.030031 -1.000000 -0.000000 0.000000
-5.373756 -0.487993 0.486105 -1.000000 -0.000000 0.000000
-5.373756 0.000001 0.486105 -1.000000 -0.000000 0.000000
-5.373756 0.000001 0.030031 -1.000000 -0.000000 0.000000
-5.373756 0.000000 0.942178 -1.000000 -0.000000 0.000000
-5.373756 0.487994 0.942178 -1.000000 -0.000000 0.000000
-5.373756 0.487994 0.486105 -1.000000 -0.000000 0.000000
-5.373756 0.487994 0.030031 -1.000000 -0.000000 0.000000
1.613389 -0.000001 0.066750 0.000000 0.000000 -1.000000
1.613389 0.999999 0.066750 0.000000 0.000000 -1.000000
2.539130 0.761650 0.066750 0.000000 0.000000 -1.000000
2.539130 -0.000001 0.066750 0.000000 0.000000 -1.000000
1.613389 -1.000001 0.066750 0.000000 -0.000000 -1.000000
2.539130 -0.761653 0.066750 0.000000 -0.000000 -1.000000
3.464872 0.523301 0.066750 0.000000 0.000000 -1.000000
3.464872 -0.000002 0.066750 0.000000 0.000000 -1.000000
3.464872 -0.523305 0.066750 0.000000 -0.000000 -1.000000
1.613389 0.999999 0.533769 0.249337 0.968417 0.000000
1.613389 0.999999 1.000787 0.249337 0.968417 0.000000
2.539131 0.761650 1.000787 0.249337 0.968417 0.000000
2.539131 0.761650 0.533769 0.249337 0.968417 0.000000
1.613389 0.999999 0.066750 0.249337 0.968417 0.000000
2.539130 0.761650 0.066750 0.249337 0.968417 0.000000
3.464873 0.523301 1.000788 0.249337 0.968417 0.000000
3.464872 0.523301 0.533769 0.249337 0.968417 0.000000
3.464872 0.523301 0.066750 0.249337 0.968417 0.000000
1.613389 -1.000001 0.533769 0.249335 -0.968417 -0.000000
1.613389 -1.000001 0.066750 0.249335 -0.968417 -0.000000
2.539130 -0.761653 0.066750 0.249335 -0.968417 -0.000000
2.539130 -0.761653 0.533769 0.249335 -0.968417 -0.000000
1.613388 -1.000001 1.000787 0.249335 -0.968417 -0.000000
2.539129 -0.761653 1.000787 0.249335 -0.968417 -0.000000
3.464872 -0.523305 0.066750 0.249335 -0.968417 -0.000000
3.464872 -0.523305 0.533769 0.249335 -0.968417 -0.000000
3.464871 -0.523305 1.000788 0.249335 -0.968417 -0.000000
1.613389 -0.000001 1.000787 -0.000000 0.000000 1.000000
1.613388 -1.000001 1.000787 -0.000000 0.000000 1.000000
2.539129 -0.761653 1.000787 -0.000000 0.000000 1.000000
2.539130 -0.000002 1.000787 -0.000000 0.000000 1.000000
1.613389 0.999999 1.000787 -0.000000 0.000000 1.000000
2.539131 0.761650 1.000787 -0.000000 0.000000 1.000000
3.464871 -0.523305 1.000788 -0.000000 0.000000 1.000000
3.464872 -0.000002 1.000788 -0.000000 0.000000 1.000000
3.464873 0.523301 1.000788 -0.000000 0.000000 1.000000
4.374264 -0.523306 1.000788 -0.000000 0.000000 1.000000
4.374265 -0.000003 1.000788 -0.000000 0.000000 1.000000
4.374266 0.523301 1.000788 -0.000000 0.000000 1.000000
5.283657 -0.523306 1.000788 -0.000000 0.000000 1.000000
5.283658 -0.000003 1.000788 -0.000000 0.000000 1.000000
5.283658 0.523300 1.000788 -0.000000 0.000000 1.000000
3.464872 -0.523305 0.533769 -0.000000 -1.000000 -0.000000
3.464872 -0.523305 0.066750 -0.000000 -1.000000 -0.000000
4.374265 -0.523305 0.066751 -0.000000 -1.000000 -0.000000
4.374265 -0.523306 0.533769 -0.000000 -1.000000 -0.000000
3.464871 -0.523305 1.000788 -0.000000 -1.000000 -0.000000
4.374264 -0.523306 1.000788 -0.000000 -1.000000 -0.000000
5.283658 -0.523306 0.066751 -0.000000 -1.000000 -0.000000
5.283657 -0.523306 0.533769 -0.000000 -1.000000 -0.000000
5.283657 -0.523306 1.000788 -0.000000 -1.000000 -0.000000
3.464872 0.523301 0.533769 0.000000 1.000000 0.000000
3.464873 0.523301 1.000788 0.000000 1.000000 0.000000
4.374266 0.523301 1.000788 0.000000 1.000000 0.000000
4.374266 0.523301 0.533769 0.000000 1.000000 0.000000
3.464872 0.523301 0.066750 0.000000 1.000000 0.000000
4.374265 0.523301 0.066751 0.000000 1.000000 0.000000
5.283658 0.523300 1.000788 0.000000 1.000000 0.000000
5.283658 0.523300 0.533769 0.000000 1.000000 0.000000
5.283658 0.523301 0.066751 0.000000 1.000000 0.000000
4.374265 0.523301 0.066751 0.000000 0.000000 -1.000000
4.374265 -0.000002 0.066751 0.000000 0.000000 -1.000000
4.374265 -0.523305 0.066751 0.000000 -0.000000 -1.000000
5.283658 0.523301 0.066751 0.000000 0.000000 -1.000000
5.283658 -0.000003 0.066751 0.000000 0.000000 -1.000000
5.283658 -0.523306 0.066751 0.000000 -0.000000 -1.000000
5.283658 0.523300 0.533769 1.000000 -0.000000 0.000000
5.283658 0.523300 1.000788 1.000000 -0.000000 0.000000
5.283658 -0.000003 1.000788 1.000000 -0.000000 0.000000
5.283658 -0.000003 0.533769 1.000000 -0.000000 0.000000
5.283658 0.523301 0.066751 1.000000 -0.000000 0.000000
5.283658 -0.000003 0.066751 1.000000 -0.000000 0.000000
5.283658 -0.000003 0.533769 1.000000 -0.000002 -0.000000
5.283658 -0.000003 1.000788 1.000000 -0.000002 -0.000000
5.283657 -0.523306 1.000788 1.000000 -0.000002 -0.000000
5.283657 -0.523306 0.533769 1.000000 -0.000002 -0.000000
5.283658 -0.000003 0.066751 1.000000 -0.000001 0.000001
5.283658 -0.000003 0.533769 1.000000 -0.000001 0.000001
5.283657 -0.523306 0.533769 1.000000 -0.000001 0.000001
5.283658 -0.523306 0.066751 1.000000 -0.000001 0.000001
4 0 1 2 3
4 4 0 3 5
4 3 2 6 7
4 5 3 7 8
4 9 10 11 12
4 13 9 12 14
4 12 11 15 16
4 14 12 16 17
4 18 19 20 21
4 22 18 21 23
4 21 20 24 25
4 23 21 25 26
4 27 28 29 30
4 31 27 30 32
4 30 29 33 34
4 32 30 34 35
4 36 37 38 39
4 40 36 39 41
4 39 38 42 43
4 41 39 43 44
4 45 46 47 48
4 49 45 48 50
4 48 47 51 52
4 50 48 52 53
4 54 55 56 57
4 58 54 57 59
4 57 56 60 61
4 59 57 61 62
4 63 64 65 66
4 67 63 66 68
4 66 65 69 70
4 68 66 70 71
4 72 73 74 75
4 76 72 75 77
4 75 74 78 79
4 77 75 79 80
4 81 82 83 84
4 85 81 84 86
4 84 83 87 88
4 86 84 88 89
4 90 91 92 93
4 94 90 93 95
4 93 92 96 97
4 95 93 97 98
4 99 100 101 102
4 103 104 105 106
4 102 101 107 108
4 106 105 109 110
4 111 112 113 114
4 115 111 114 116
4 114 113 117 118
4 116 114 118 119
4 120 121 122 123
4 124 120 123 125
4 123 122 126 127
4 125 123 127 128
4 129 130 131 132
4 133 129 132 134
4 132 131 135 136
4 134 132 136 137
4 5 8 138 139
4 4 5 139 140
4 139 138 141 142
4 140 139 142 143
4 11 10 144 145
4 15 11 145 146
4 147 148 149 150
4 146 145 151 152
4 153 154 155 156
4 157 153 156 158
4 159 160 161 162
4 163 159 162 164
4 165 166 167 168
4 169 165 168 170
4 168 167 171 172
4 173 174 175 176
4 177 178 179 180
4 181 182 183 184
4 185 186 187 188
4 189 190 191 192
4 193 194 195 196
4 197 198 199 200
4 201 202 203 204
4 205 206 207 208
4 209 210 211 212
4 213 209 212 214
4 212 211 215 216
4 214 212 216 217
4 218 219 220 221
4 222 223 224 225
4 226 227 228 229
4 230 231 232 233
4 234 235 236 237
4 238 234 237 239
4 237 236 240 241
4 239 237 241 242
4 243 244 245 246
4 247 248 249 250
4 251 252 253 254
4 255 256 257 258
4 259 260 261 262
4 263 259 262 264
4 262 261 265 266
4 264 262 266 267
4 268 269 270 271
4 272 268 271 273
4 271 270 274 275
4 273 271 275 276
4 277 278 279 280
4 281 277 280 282
4 280 279 283 284
4 282 280 284 285
4 286 287 288 289
4 290 286 289 291
4 289 288 292 293
4 291 289 293 294
4 295 296 297 298
4 299 295 298 300
4 298 297 301 302
4 300 298 302 303
4 304 305 306 307
4 308 304 307 309
4 307 306 310 311
4 309 307 311 312
4 313 314 315 316
4 317 318 319 320
4 316 315 321 322
4 320 319 323 324
4 325 326 327 328
4 329 325 328 330
4 328 327 331 332
4 330 328 332 333
4 334 335 336 337
4 338 339 340 341
4 337 336 342 343
4 341 340 344 345
4 343 342 346 347
4 348 343 347 349
4 347 346 350 351
4 349 347 351 352
4 353 354 355 356
4 357 353 356 358
4 356 355 359 360
4 358 356 360 361
4 323 362 363 364
4 324 323 364 365
4 364 363 366 367
4 365 364 367 368
4 369 370 371 372
4 373 369 372 374
4 372 371 375 376
4 374 372 376 377
4 378 379 380 381
4 382 383 384 385
4 384 386 387 388
4 385 384 388 389
4 390 391 392 393
4 394 390 393 395
4 393 392 396 397
4 395 393 397 398
4 293 292 399 400
4 294 293 400 401
4 400 399 402 403
4 401 400 403 404
4 284 283 405 406
4 285 284 406 407
4 406 405 408 409
4 407 406 409 410
4 411 412 413 414
4 415 411 414 416
4 414 413 417 418
4 416 414 418 419
4 420 421 422 423
4 424 420 423 425
4 423 422 426 427
4 425 423 427 428
4 429 430 431 432
4 433 429 432 434
4 432 431 435 436
4 434 432 436 437
4 438 439 440 441
4 442 438 441 443
4 444 445 446 447
4 448 444 447 449
4 450 451 452 453
4 454 450 453 455
4 453 452 456 457
4 455 453 457 458
4 459 460 461 462
4 463 459 462 464
4 462 461 465 466
4 464 462 466 467
4 468 469 470 471
4 472 468 471 473
4 471 470 474 475
4 476 477 478 479
4 480 481 482 483
4 484 480 483 485
4 483 482 486 487
4 485 483 487 488
4 489 490 491 492
4 493 489 492 494
4 492 491 495 496
4 494 492 496 497
4 498 499 500 501
4 502 498 501 503
4 501 500 504 505
4 503 501 505 506
4 507 508 509 510
4 511 507 510 512
4 510 509 513 514
4 512 510 514 515
4 516 517 518 519
4 520 516 519 521
4 522 523 524 525
4 526 522 525 527
4 528 529 530 531
4 532 528 531 533
4 531 530 534 535
4 533 531 535 536
4 537 538 539 540
4 541 537 540 542
4 543 544 545 546
4 547 543 546 548
4 549 550 551 552
4 553 549 552 554
4 552 551 555 556
4 554 552 556 557
4 558 559 560 561
4 562 558 561 563
4 561 560 564 565
4 563 561 565 566
4 567 568 569 570
4 571 567 570 572
4 570 569 573 574
4 572 570 574 575
4 576 577 578 579
4 580 576 579 581
4 579 578 582 583
4 581 579 583 584
4 585 586 587 588
4 589 590 591 592
4 591 593 594 595
4 592 591 595 596
4 597 598 599 600
4 601 597 600 602
4 600 599 603 604
4 602 600 604 605
4 606 607 608 609
4 610 606 609 611
4 609 608 612 613
4 611 609 613 614
4 615 616 617 618
4 619 615 618 620
4 618 617 621 622
4 620 618 622 623
4 624 625 626 627
4 628 624 627 629
4 627 626 630 631
4 629 627 631 632
4 631 630 633 634
4 632 631 634 635
4 634 633 636 637
4 635 634 637 638
4 639 640 641 642
4 643 639 642 644
4 642 641 645 646
4 644 642 646 647
4 648 649 650 651
4 652 648 651 653
4 651 650 654 655
4 653 651 655 656
4 604 603 657 658
4 605 604 658 659
4 658 657 660 661
4 659 658 661 662
4 663 664 665 666
4 667 663 666 668
4 669 670 671 672
4 673 674 675 676
